<svg width="21" height="20" viewBox="0 0 21 20" fill="none" xmlns="http://www.w3.org/2000/svg">
<path d="M0 19.9996L2.96552 18.9651L0.724138 17.9307L0 19.9996Z" fill="#F7B600"/>
<path d="M8.58619 11.5174L4.41378 7.31055L3.72412 9.24158L8.58619 11.5174Z" fill="#FFDD7D"/>
<path d="M3.7242 9.2417L2.96558 11.4141L12.207 15.7245L12.6552 15.5865L8.58627 11.5176L3.7242 9.2417Z" fill="#F7B600"/>
<path d="M2.24133 13.5865L9.13789 16.7934L12.2069 15.7244L2.96547 11.4141L2.24133 13.5865Z" fill="#FFDD7D"/>
<path d="M1.48279 15.7584L6.03451 17.8963L9.13796 16.7928L2.24141 13.5859L1.48279 15.7584Z" fill="#F7B600"/>
<path d="M1.48274 15.7583L0.724121 17.9307L2.9655 18.9652L6.03447 17.8962L1.48274 15.7583Z" fill="#FFDD7D"/>
<path d="M10.3103 9.72405C12.6207 11.9999 13.8276 14.5516 13 15.3792C12.1379 16.2068 9.58618 15.0344 7.24135 12.7241C4.931 10.4482 3.72411 7.89646 4.55169 7.06888C5.41376 6.24129 7.96549 7.44819 10.3103 9.72405Z" fill="#493816"/>
<path d="M7.41383 3.9653C6.86211 3.1722 7.44832 2.82737 8.20694 2.9653C7.4828 2.10323 7.93107 1.48254 9.06901 1.72392C9.41383 1.79289 8.93107 2.3791 8.62073 2.3791C9.55176 3.06875 9.03452 3.82737 8.03452 3.65496C8.93107 4.86185 7.41383 4.55151 6.72418 4.62047C6.55176 5.51703 7.58625 6.55151 7.24142 6.55151C6.4828 6.55151 5.24142 3.68944 7.41383 3.9653Z" fill="#42ADE2"/>
<path d="M14.6552 5.62071C14.138 5.86209 12.6897 3.58622 14.4828 3.55174C13.4483 2.62071 13.5862 2.17243 14.9655 2.13795C13.3793 0.551741 15.8966 1.71959e-05 16.138 0.827603C16.2069 1.06898 15.3793 0.620707 15.1035 1.06898C14.7931 1.58622 17.0345 2.93105 14.7242 2.8276C15.5862 3.68967 15.6207 4.10347 14.2759 4.2414C14.4483 4.51726 15 5.48278 14.6552 5.62071Z" fill="#FF8736"/>
<path d="M15.2415 11L15.7587 10.5517C15.7587 10.5517 16.2415 11.2759 16.5863 11.5517C16.8621 10.3103 16.7932 9.58621 18.207 10.4138C17.4139 8.27586 18.7242 9.06897 20.0001 9.65517C19.9311 9.10345 20.0001 9.17241 20.5518 9C21.0346 10.8276 19.7242 10.2759 18.6897 9.68966C19.3104 11.3448 18.6552 11.2414 17.3449 10.6897C17.3104 11.3793 17.1035 12.1724 16.6897 12.2414C16.207 12.3793 15.2415 11 15.2415 11Z" fill="#ED4C5C"/>
<path d="M11.3794 5.89655C10.7587 6.72414 9.75867 7.17241 9.03453 7.89655C8.27591 8.65517 7.82764 10.7241 7.82764 10.7241C7.82764 10.7241 8.1035 8.55172 8.82764 7.72414C9.48281 6.96552 10.4483 6.41379 10.9656 5.55172C11.8621 3.96552 11.0345 1.89655 9.86212 0.689655C10.1035 0.482759 10.4483 0.206897 10.6207 0C11.7587 1.41379 12.7242 4.13793 11.3794 5.89655Z" fill="#C28FEF"/>
<path d="M12.4483 7.65516C11.5518 8.31034 10.8966 9.27585 10.2759 10.1724C9.7242 10.9655 7.96558 11.9655 7.96558 11.9655C7.96558 11.9655 9.62075 10.8276 10.138 9.99999C10.7587 8.96551 11.3794 7.89654 12.3449 7.13792C14.2759 5.65516 17.069 5.79309 19.2414 6.5862C19.1035 6.89654 18.8621 7.55171 18.8621 7.55171C18.8621 7.55171 14.2759 6.31034 12.4483 7.65516Z" fill="#FF8736"/>
<path d="M16.2759 7.48279C15.6897 8.24141 15.4138 9.17245 14.9655 10.0345C14.5517 10.8276 14 11.5862 13.2069 12C12.3103 12.4483 10.3448 12.3104 10.3448 12.3104C10.3448 12.3104 12.3103 12.2759 13.1379 11.7242C13.9655 11.1724 14.4138 10.2069 14.7241 9.31038C15.3448 7.58624 16.1034 5.72417 17.8965 4.96555C18 5.27589 18.2414 5.93107 18.2414 5.93107C18.2414 5.93107 17.2414 6.20693 16.2759 7.48279ZM0.417236 3.9052L1.39241 2.92969L2.36793 3.90486L1.39275 4.88072L0.417236 3.9052Z" fill="#42ADE2"/>
<path d="M1.78381 6.96443L2.75864 5.98926L3.73381 6.96443L2.75864 7.9396L1.78381 6.96443Z" fill="#FF8736"/>
<path d="M4.26135 2.35261L5.23653 1.37744L6.2117 2.35261L5.23653 3.32779L4.26135 2.35261Z" fill="#ED4C5C"/>
<path d="M14.8983 14.0331L15.8735 13.0576L16.8487 14.0331L15.8735 15.0083L14.8983 14.0331Z" fill="#C28FEF"/>
<path d="M12.7252 17.3756L13.7004 16.4004L14.6759 17.3759L13.7004 18.3511L12.7252 17.3756Z" fill="#ED4C5C"/>
<path d="M16.9928 18.1401L17.968 17.1646L18.9431 18.1401L17.968 19.1152L16.9928 18.1401Z" fill="#FF8736"/>
<path d="M17.9579 13.7002L18.933 12.7251L19.9082 13.7002L18.933 14.6758L17.9579 13.7002ZM16.3296 3.38714L17.3048 2.41162L18.2803 3.38714L17.3051 4.36231L16.3296 3.38714Z" fill="#42ADE2"/>
<path d="M5.8772 9.23836L6.85271 8.26318L7.82789 9.23836L6.85271 10.2139L5.8772 9.23836Z" fill="#ED4C5C"/>
</svg>
