<svg width="21" height="20" viewBox="0 0 21 20" fill="none" xmlns="http://www.w3.org/2000/svg">
<path d="M14.1132 2.9665V3.42235L14.5671 3.46437C15.5989 3.55991 16.3107 3.90826 16.7847 4.41142C17.2444 4.89945 17.5255 5.58106 17.614 6.44984H3.69576C3.78433 5.58106 4.06539 4.89945 4.5251 4.41142C4.99907 3.90826 5.71088 3.55991 6.74266 3.46437L7.19656 3.42235V2.9665V1.6665C7.19656 1.63636 7.20885 1.60508 7.23449 1.57943C7.26013 1.55379 7.29141 1.5415 7.32156 1.5415C7.35171 1.5415 7.38299 1.55379 7.40863 1.57943C7.43428 1.60508 7.44656 1.63636 7.44656 1.6665V2.9165V3.4165H7.94656H13.3632H13.8632V2.9165V1.6665C13.8632 1.63636 13.8755 1.60508 13.9012 1.57943C13.9268 1.55379 13.9581 1.5415 13.9882 1.5415C14.0184 1.5415 14.0497 1.55379 14.0753 1.57943C14.1009 1.60508 14.1132 1.63636 14.1132 1.6665V2.9665Z" fill="#4D4D4D" stroke="#4D4D4D"/>
<path d="M17.3216 8.2002H3.98824C3.52991 8.2002 3.15491 8.5752 3.15491 9.03353V14.1669C3.15491 16.6669 4.40491 18.3335 7.32157 18.3335H13.9882C16.9049 18.3335 18.1549 16.6669 18.1549 14.1669V9.03353C18.1549 8.5752 17.7799 8.2002 17.3216 8.2002ZM8.32991 15.1752C8.28824 15.2085 8.24657 15.2502 8.20491 15.2752C8.15491 15.3085 8.10491 15.3335 8.05491 15.3502C8.00491 15.3752 7.95491 15.3919 7.90491 15.4002C7.84657 15.4085 7.79657 15.4169 7.73824 15.4169C7.62991 15.4169 7.52157 15.3919 7.42157 15.3502C7.31324 15.3085 7.22991 15.2502 7.14657 15.1752C6.99657 15.0169 6.90491 14.8002 6.90491 14.5835C6.90491 14.3669 6.99657 14.1502 7.14657 13.9919C7.22991 13.9169 7.31324 13.8585 7.42157 13.8169C7.57157 13.7502 7.73824 13.7335 7.90491 13.7669C7.95491 13.7752 8.00491 13.7919 8.05491 13.8169C8.10491 13.8335 8.15491 13.8585 8.20491 13.8919C8.24657 13.9252 8.28824 13.9585 8.32991 13.9919C8.47991 14.1502 8.57157 14.3669 8.57157 14.5835C8.57157 14.8002 8.47991 15.0169 8.32991 15.1752ZM8.32991 12.2585C8.17157 12.4085 7.95491 12.5002 7.73824 12.5002C7.52157 12.5002 7.30491 12.4085 7.14657 12.2585C6.99657 12.1002 6.90491 11.8835 6.90491 11.6669C6.90491 11.4502 6.99657 11.2335 7.14657 11.0752C7.37991 10.8419 7.74657 10.7669 8.05491 10.9002C8.16324 10.9419 8.25491 11.0002 8.32991 11.0752C8.47991 11.2335 8.57157 11.4502 8.57157 11.6669C8.57157 11.8835 8.47991 12.1002 8.32991 12.2585ZM11.2466 15.1752C11.0882 15.3252 10.8716 15.4169 10.6549 15.4169C10.4382 15.4169 10.2216 15.3252 10.0632 15.1752C9.91324 15.0169 9.82157 14.8002 9.82157 14.5835C9.82157 14.3669 9.91324 14.1502 10.0632 13.9919C10.3716 13.6835 10.9382 13.6835 11.2466 13.9919C11.3966 14.1502 11.4882 14.3669 11.4882 14.5835C11.4882 14.8002 11.3966 15.0169 11.2466 15.1752ZM11.2466 12.2585C11.2049 12.2919 11.1632 12.3252 11.1216 12.3585C11.0716 12.3919 11.0216 12.4169 10.9716 12.4335C10.9216 12.4585 10.8716 12.4752 10.8216 12.4835C10.7632 12.4919 10.7132 12.5002 10.6549 12.5002C10.4382 12.5002 10.2216 12.4085 10.0632 12.2585C9.91324 12.1002 9.82157 11.8835 9.82157 11.6669C9.82157 11.4502 9.91324 11.2335 10.0632 11.0752C10.1382 11.0002 10.2299 10.9419 10.3382 10.9002C10.6466 10.7669 11.0132 10.8419 11.2466 11.0752C11.3966 11.2335 11.4882 11.4502 11.4882 11.6669C11.4882 11.8835 11.3966 12.1002 11.2466 12.2585ZM14.1632 15.1752C14.0049 15.3252 13.7882 15.4169 13.5716 15.4169C13.3549 15.4169 13.1382 15.3252 12.9799 15.1752C12.8299 15.0169 12.7382 14.8002 12.7382 14.5835C12.7382 14.3669 12.8299 14.1502 12.9799 13.9919C13.2882 13.6835 13.8549 13.6835 14.1632 13.9919C14.3132 14.1502 14.4049 14.3669 14.4049 14.5835C14.4049 14.8002 14.3132 15.0169 14.1632 15.1752ZM14.1632 12.2585C14.1216 12.2919 14.0799 12.3252 14.0382 12.3585C13.9882 12.3919 13.9382 12.4169 13.8882 12.4335C13.8382 12.4585 13.7882 12.4752 13.7382 12.4835C13.6799 12.4919 13.6216 12.5002 13.5716 12.5002C13.3549 12.5002 13.1382 12.4085 12.9799 12.2585C12.8299 12.1002 12.7382 11.8835 12.7382 11.6669C12.7382 11.4502 12.8299 11.2335 12.9799 11.0752C13.0632 11.0002 13.1466 10.9419 13.2549 10.9002C13.4049 10.8335 13.5716 10.8169 13.7382 10.8502C13.7882 10.8585 13.8382 10.8752 13.8882 10.9002C13.9382 10.9169 13.9882 10.9419 14.0382 10.9752C14.0799 11.0085 14.1216 11.0419 14.1632 11.0752C14.3132 11.2335 14.4049 11.4502 14.4049 11.6669C14.4049 11.8835 14.3132 12.1002 14.1632 12.2585Z" fill="#4D4D4D"/>
</svg>
