<svg width="28" height="28" viewBox="0 0 28 28" fill="none" xmlns="http://www.w3.org/2000/svg">
<path d="M5.83333 5.83333H12.8333C13.475 5.83333 14 5.30833 14 4.66667C14 4.025 13.475 3.5 12.8333 3.5H5.83333C4.55 3.5 3.5 4.55 3.5 5.83333V22.1667C3.5 23.45 4.55 24.5 5.83333 24.5H12.8333C13.475 24.5 14 23.975 14 23.3333C14 22.6917 13.475 22.1667 12.8333 22.1667H5.83333V5.83333Z" fill="#333333"/>
<path d="M24.0917 13.5915L20.8367 10.3365C20.7555 10.2531 20.6514 10.1959 20.5375 10.172C20.4236 10.1482 20.3052 10.1589 20.1975 10.2028C20.0898 10.2466 19.9975 10.3216 19.9327 10.4182C19.8678 10.5148 19.8332 10.6285 19.8333 10.7448V12.8331H11.6667C11.025 12.8331 10.5 13.3581 10.5 13.9998C10.5 14.6415 11.025 15.1665 11.6667 15.1665H19.8333V17.2548C19.8333 17.7798 20.4633 18.0365 20.825 17.6631L24.08 14.4081C24.3133 14.1865 24.3133 13.8131 24.0917 13.5915Z" fill="#333333"/>
</svg>
