<svg width="104" height="30" viewBox="0 0 104 30" fill="none" xmlns="http://www.w3.org/2000/svg">
<rect width="104" height="30" fill="#F2F2F2"/>
<path d="M19.6358 21.6833H15.9651L18.261 8.3584H21.9316L19.6358 21.6833Z" fill="#15195A"/>
<path d="M32.9422 8.68448C32.2182 8.41487 31.0698 8.11719 29.6499 8.11719C26.0249 8.11719 23.4723 9.93154 23.4566 12.5255C23.4265 14.4394 25.2843 15.5024 26.6737 16.1405C28.0938 16.7926 28.5766 17.2182 28.5766 17.7994C28.5621 18.6921 27.429 19.1036 26.3722 19.1036C24.9067 19.1036 24.1214 18.8914 22.9281 18.3948L22.4448 18.1819L21.9311 21.173C22.792 21.5412 24.3782 21.8679 26.0249 21.8822C29.8765 21.8822 32.384 20.0959 32.4137 17.3316C32.4284 15.8147 31.4474 14.6525 29.3325 13.7027C28.0487 13.093 27.2624 12.6819 27.2624 12.0581C27.2775 11.491 27.9274 10.9101 29.3767 10.9101C30.57 10.8817 31.4468 11.1509 32.111 11.4203L32.443 11.5618L32.9422 8.68448Z" fill="#15195A"/>
<path fill-rule="evenodd" clip-rule="evenodd" d="M39.5129 8.3584H42.3522L45.3136 21.6831H41.9149C41.9149 21.6831 41.5822 20.1521 41.4769 19.6843H36.764C36.6277 20.0385 35.9936 21.6831 35.9936 21.6831H32.142L37.5944 9.46397C37.9721 8.59918 38.6374 8.3584 39.5129 8.3584ZM39.2868 13.2345C39.2868 13.2345 38.1236 16.1972 37.8213 16.9627H40.8724C40.7214 16.2965 40.0263 13.107 40.0263 13.107L39.7698 11.9588C39.6618 12.2545 39.5055 12.6609 39.4002 12.9351C39.3287 13.121 39.2807 13.246 39.2868 13.2345Z" fill="#15195A"/>
<path fill-rule="evenodd" clip-rule="evenodd" d="M9.30443 17.4447L12.8993 8.3584H16.7807L11.011 21.6691H7.12934L3.85766 10.0911C2.7288 9.47164 1.44045 8.97343 0 8.62769L0.0604192 8.35845H5.96624C6.76675 8.38653 7.4163 8.6275 7.62767 9.47853L8.91099 15.5999C8.91119 15.6006 8.9114 15.6012 8.9116 15.6019L9.30443 17.4447Z" fill="#15195A"/>
<path d="M84.4227 23.7878H74.583V6.21484H84.4227V23.7878Z" fill="#FF5F00"/>
<path d="M75.2134 14.9998C75.2134 11.435 76.893 8.25961 79.5085 6.21326C77.5959 4.71687 75.182 3.82373 72.5586 3.82373C66.348 3.82373 61.3136 8.82733 61.3136 14.9998C61.3136 21.1722 66.348 26.1758 72.5586 26.1758C75.182 26.1758 77.5959 25.2826 79.5085 23.7862C76.893 21.7399 75.2134 18.5645 75.2134 14.9998Z" fill="#EB001B"/>
<path d="M97.6935 14.9998C97.6935 21.1722 92.6591 26.1758 86.4485 26.1758C83.8251 26.1758 81.4112 25.2826 79.4978 23.7862C82.114 21.7399 83.7936 18.5645 83.7936 14.9998C83.7936 11.435 82.114 8.25961 79.4978 6.21326C81.4112 4.71687 83.8251 3.82373 86.4485 3.82373C92.6591 3.82373 97.6935 8.82733 97.6935 14.9998Z" fill="#F79E1B"/>
</svg>
